<svg width="13" height="12" viewBox="0 0 13 12" fill="none" xmlns="http://www.w3.org/2000/svg">
<path d="M6.9535 4.43314L5.34043 3.78171C5.06634 3.67102 4.92929 3.61567 4.85569 3.59822C4.05718 3.40889 3.38314 4.20889 3.7052 4.9637C3.73489 5.03328 3.81269 5.15895 3.96828 5.41028L3.96828 5.41028C4.00614 5.47144 4.02507 5.50202 4.0407 5.53151C4.19608 5.82451 4.19608 6.17549 4.0407 6.46849C4.02507 6.49798 4.00614 6.52856 3.96828 6.58972C3.81269 6.84105 3.73489 6.96672 3.7052 7.0363C3.38314 7.79111 4.05718 8.59111 4.85569 8.40178C4.92929 8.38433 5.06634 8.32898 5.34043 8.21829L6.9535 7.56686C8.2776 7.03213 8.93965 6.76476 9.09583 6.35993C9.18519 6.1283 9.18519 5.8717 9.09583 5.64007C8.93965 5.23524 8.2776 4.96787 6.9535 4.43314Z" fill="#532966" stroke="#532966" stroke-width="1.2"/>
</svg>
