<svg width="200" height="51" viewBox="0 0 200 51" fill="none" xmlns="http://www.w3.org/2000/svg">
<path d="M90.5 20.0004L94.3 17.2004H81.7V33.8004H94.3V31.0004H85.3V26.8004H92.9V24.0004H85.3V20.0004H90.5ZM74.8 20.0004L78.6 17.2004H64.2V33.8004H71.7C75.9 33.8004 78.3 31.9004 78.3 28.6004C78.3 25.4004 76.1 23.7004 72.1 23.7004H67.7V20.0004H74.8ZM71.6 26.4004C73.9 26.4004 74.9 27.2004 74.9 28.7004C74.9 30.2004 73.8 31.0004 71.6 31.0004H67.8V26.4004H71.6ZM104.4 17.2004H97.6V33.8004H101.2V29.1004H104.5C108.9 29.1004 111.6 26.8004 111.6 23.1004C111.6 19.4004 108.8 17.2004 104.4 17.2004ZM104.4 26.3004H101.2V19.9004H104.4C106.7 19.9004 108 21.0004 108 23.1004C107.9 25.2004 106.7 26.3004 104.4 26.3004ZM58.1 30.2004C57.1 30.7004 56.1 31.0004 55 31.0004C51.8 31.0004 49.4 28.7004 49.4 25.5004C49.4 22.3004 51.7 20.0004 55 20.0004C56.2 20.0004 57.3 20.4004 58.3 21.0004L60.9 19.1004L60.7 18.9004C59.2 17.6004 57.2 16.9004 54.9 16.9004C52.4 16.9004 50.2 17.7004 48.5 19.3004C46.9 20.9004 45.9 23.1004 46 25.4004C46 27.7004 46.9 29.9004 48.5 31.6004C50.2 33.2004 52.5 34.1004 54.8 34.0004C57.4 34.0004 59.6 33.1004 61.2 31.5004L58.9 29.8004L58.1 30.2004ZM166 24.0004H158.3V17.2004H154.7V33.8004H158.3V27.0004H166V33.8004H169.6V17.2004H166V24.0004ZM141.7 17.2004L134.5 33.8004H138.1L139.5 30.5004H147.1L148.5 33.8004H152.3L145.3 17.2004H141.7ZM140.7 27.7004L143.5 21.0004L146.1 27.7004H140.7ZM182.6 25.2004L189.1 17.2004H185L179.6 24.3004H177.6V17.2004H174V33.8004H177.6V27.1004H179.9L185.4 33.8004H190L182.6 25.2004ZM127 23.7004H122.6V20.0004H132V17.2004H119V33.8004H126.5C130.7 33.8004 133.1 31.9004 133.1 28.6004C133.2 25.4004 131 23.7004 127 23.7004ZM126.4 31.1004H122.6V26.5004H126.4C128.7 26.5004 129.7 27.3004 129.7 28.8004C129.8 30.3004 128.6 31.1004 126.4 31.1004Z" fill="#21A038"/>
<path d="M34.4813 16.8809C35.1305 17.7315 35.6801 18.6556 36.1189 19.6347L23.67 28.935L18.4673 25.6297V21.6533L23.67 24.9586L34.4813 16.8809Z" fill="#21A038"/>
<path d="M13.1573 25.3496C13.1573 25.1712 13.1616 24.9939 13.1702 24.8177L10.0172 24.6611C10.0064 24.8895 10 25.1201 10 25.3528C9.99866 27.1712 10.3516 28.9719 11.0385 30.6516C11.7254 32.3314 12.7328 33.8572 14.003 35.1414L16.2395 32.8759C15.2618 31.8891 14.4862 30.7161 13.9572 29.4245C13.4283 28.1329 13.1564 26.748 13.1573 25.3496Z" fill="url(#paint0_linear_63_1844)"/>
<path d="M23.6669 14.6996C23.8429 14.6996 24.0178 14.7061 24.1917 14.7148L24.3494 11.5183C24.1234 11.5074 23.8958 11.502 23.6669 11.502C21.8719 11.4997 20.0942 11.8569 18.4357 12.5529C16.7773 13.2489 15.2709 14.27 14.0029 15.5577L16.2394 17.8243C17.2132 16.8331 18.3707 16.0468 19.6454 15.5106C20.9201 14.9743 22.2867 14.6987 23.6669 14.6996Z" fill="url(#paint1_linear_63_1844)"/>
<path d="M23.667 36.0006C23.491 36.0006 23.316 36.0006 23.1412 35.9864L22.9834 39.1819C23.2102 39.1935 23.4381 39.1993 23.667 39.1993C25.4613 39.2012 27.2382 38.8438 28.8957 38.1476C30.5532 37.4514 32.0587 36.4301 33.3257 35.1425L31.0934 32.877C30.1195 33.8676 28.9621 34.6535 27.6877 35.1895C26.4132 35.7256 25.0468 36.0012 23.667 36.0006Z" fill="url(#paint2_linear_63_1844)"/>
<path d="M29.5909 16.5575L32.2481 14.5725C29.8194 12.5794 26.7877 11.4945 23.6626 11.5V14.6987C25.7788 14.6961 27.8459 15.3442 29.5909 16.5575Z" fill="url(#paint3_linear_63_1844)"/>
<path d="M37.3327 25.3501C37.3344 24.518 37.2626 23.6873 37.118 22.8682L34.1765 25.0652C34.1765 25.1598 34.1765 25.2544 34.1765 25.3501C34.1772 26.8383 33.8694 28.31 33.273 29.6699C32.6766 31.0298 31.8048 32.2475 30.7144 33.2441L32.8361 35.6206C34.2538 34.3234 35.3867 32.7389 36.1613 30.9697C36.936 29.2003 37.335 27.2858 37.3327 25.3501Z" fill="#21A038"/>
<path d="M23.6672 36.0009C22.1987 36.0014 20.7465 35.6893 19.4044 35.0849C18.0625 34.4805 16.8607 33.5972 15.877 32.4922L13.5332 34.6413C14.8129 36.0784 16.3764 37.2267 18.1222 38.012C19.868 38.7972 21.7572 39.2018 23.6672 39.1995V36.0009Z" fill="url(#paint4_linear_63_1844)"/>
<path d="M16.6194 17.4556L14.4988 15.0791C13.0806 16.376 11.9473 17.9604 11.1723 19.7297C10.3973 21.499 9.99789 23.4137 10 25.3495H13.1573C13.1566 23.8614 13.4645 22.3897 14.0609 21.0298C14.6573 19.6699 15.529 18.4522 16.6194 17.4556Z" fill="url(#paint5_linear_63_1844)"/>
<defs>
<linearGradient id="paint0_linear_63_1844" x1="14.6415" y1="34.7423" x2="11.1091" y2="24.6664" gradientUnits="userSpaceOnUse">
<stop offset="0.14" stop-color="#F1E813"/>
<stop offset="0.3" stop-color="#E6E418"/>
<stop offset="0.58" stop-color="#C9DA26"/>
<stop offset="0.89" stop-color="#A2CC39"/>
</linearGradient>
<linearGradient id="paint1_linear_63_1844" x1="14.9044" y1="16.1233" x2="23.819" y2="12.7711" gradientUnits="userSpaceOnUse">
<stop offset="0.06" stop-color="#0FA7DF"/>
<stop offset="0.54" stop-color="#0098F8"/>
<stop offset="0.92" stop-color="#0290EA"/>
</linearGradient>
<linearGradient id="paint2_linear_63_1844" x1="22.7752" y1="37.2687" x2="32.8352" y2="35.0263" gradientUnits="userSpaceOnUse">
<stop offset="0.12" stop-color="#A2CC39"/>
<stop offset="0.28" stop-color="#86C239"/>
<stop offset="0.87" stop-color="#219F38"/>
</linearGradient>
<linearGradient id="paint3_linear_63_1844" x1="23.0059" y1="12.5713" x2="31.6153" y2="15.1929" gradientUnits="userSpaceOnUse">
<stop offset="0.06" stop-color="#0290EA"/>
<stop offset="0.79" stop-color="#0C89CA"/>
</linearGradient>
<linearGradient id="paint4_linear_63_1844" x1="14.3252" y1="34.2519" x2="23.7051" y2="37.711" gradientUnits="userSpaceOnUse">
<stop offset="0.13" stop-color="#F1E813"/>
<stop offset="0.3" stop-color="#EAE616"/>
<stop offset="0.53" stop-color="#D8DF1F"/>
<stop offset="0.8" stop-color="#BAD52D"/>
<stop offset="0.98" stop-color="#A2CC39"/>
</linearGradient>
<linearGradient id="paint5_linear_63_1844" x1="11.1762" y1="25.7367" x2="15.0174" y2="15.877" gradientUnits="userSpaceOnUse">
<stop offset="0.07" stop-color="#A2CC39"/>
<stop offset="0.26" stop-color="#81C45E"/>
<stop offset="0.92" stop-color="#0FA7DF"/>
</linearGradient>
</defs>
</svg>
