<svg width="200" height="51" viewBox="0 0 200 51" fill="none" xmlns="http://www.w3.org/2000/svg">
<path d="M58.1184 22.8659L58.7625 20.8431L56.6675 20.9094C55.6863 20.8732 54.7411 20.5421 53.9465 19.9582H54.2294C55.5057 19.9522 56.6736 19.2237 57.2394 18.0799L58.1605 16.1114C57.4381 16.1174 56.7157 16.0752 55.9993 15.9849C55.313 15.8224 54.699 15.4492 54.2354 14.9194C53.6093 14.2512 52.7425 13.8719 51.8274 13.8659C51.4722 13.8659 51.117 13.9261 50.7739 14.0344C50.8221 13.8719 50.8642 13.7094 50.8943 13.5408C51.0388 12.3669 50.7077 11.1809 49.9792 10.2478L48.3899 8.2913L47.4147 10.5789C47.2582 10.904 47.0234 11.187 46.7224 11.3916C46.5538 10.5729 46.1565 9.82642 45.5665 9.23645C44.5793 8.22508 43.2247 7.6592 41.81 7.67124C41.5632 7.67124 41.3164 7.6893 41.0756 7.72542L39.1732 8.09866C39.3358 7.46053 39.5946 6.85251 39.9438 6.29264L40.9913 4.6612L38.3545 4.90803L37.5117 3.10201L35.8863 3.98696L34.3813 2.5L32.8762 3.98696L31.2508 3.14415L30.408 4.90803L27.7712 4.60702L28.8187 6.24448C29.1679 6.80435 29.4267 7.41237 29.5893 8.0505L27.7833 7.69532H27.7231C27.4702 7.6592 27.2174 7.64114 26.9645 7.64114C25.5498 7.6291 24.1953 8.19498 23.208 9.20635C22.612 9.80234 22.2027 10.5609 22.0401 11.3916C21.7512 11.193 21.5164 10.9221 21.3599 10.603L20.3786 8.29732L18.7773 10.2599C18.0609 11.193 17.7418 12.3729 17.8803 13.5408C17.9104 13.7094 17.9525 13.8719 18.0007 14.0344C17.6575 13.9261 17.3023 13.8659 16.9472 13.8659C16.0321 13.8719 15.1652 14.2512 14.5391 14.9194C14.0816 15.4431 13.4736 15.8164 12.7933 15.9849C12.0709 16.0933 11.3365 16.1354 10.602 16.1114L11.499 18.11C12.0649 19.2538 13.2328 19.9823 14.509 19.9883H14.792C14.0094 20.5602 13.0763 20.8913 12.107 20.9334L10 20.8431L10.6441 22.8659C11.1258 24.4492 12.4923 25.611 14.1358 25.8217C13.9672 26.8873 13.293 27.8084 12.3298 28.29L10.7164 28.9461L11.5833 30.4572C12.2997 31.5709 13.5338 32.2331 14.8522 32.2211C15.1953 32.2211 15.5385 32.1849 15.8756 32.1127C15.9599 32.4799 16.0682 32.8471 16.1886 33.2023C16.4896 33.997 16.5077 34.8639 16.2488 35.6706L15.4662 37.314L17.2181 37.7776C17.6094 37.8799 18.0187 37.9281 18.4221 37.9281C18.711 37.9281 18.994 37.898 19.2769 37.8318C19.4816 37.7836 19.6863 37.7234 19.8789 37.6451C20.1017 38.0485 20.3846 38.4217 20.7037 38.7528C21.8234 39.9027 23.4127 40.4866 25.4294 40.4866H26.8682L23.9003 41.7207L26.1518 42.8344C27.0609 43.2799 27.988 43.6833 28.9331 44.0384L28.6622 44.8211L29.4388 45.1762C30.7271 45.6819 32.0936 45.9649 33.4783 46.013H35.3264C36.705 45.9649 38.0655 45.6759 39.3478 45.1702L40.1003 44.8211L39.8354 44.0384C40.7926 43.6712 41.7318 43.2558 42.6468 42.7923L44.8562 41.7207L41.8943 40.5167H43.3391C45.3558 40.5167 46.9512 39.9147 48.0649 38.7829C48.3899 38.4518 48.6669 38.0786 48.8896 37.6752C49.0823 37.7535 49.2869 37.8137 49.4916 37.8619C49.7746 37.9281 50.0575 37.9582 50.3465 37.9582C50.7498 37.9582 51.1592 37.904 51.5505 37.8077L53.3083 37.3441L52.5438 35.7308C52.2548 34.912 52.2669 34.015 52.5739 33.2023C52.7003 32.8351 52.8027 32.4619 52.8869 32.0886C53.2241 32.1609 53.5732 32.197 53.9164 32.197C55.2468 32.209 56.4869 31.5227 57.1913 30.391L58.0461 28.898L56.4568 28.2478C55.4936 27.7662 54.8194 26.8451 54.6508 25.7796C56.2943 25.5629 57.6609 24.407 58.1425 22.8177L58.1184 22.8659Z" fill="white"/>
<path d="M41.6176 29.2587H27.1694V34.6767C27.1694 36.9042 28.7768 38.2888 31.1547 38.2888C33.1413 38.2888 33.6651 38.367 34.3995 39.1015C34.8631 38.6018 35.5192 38.3189 36.2055 38.3309V38.2466L36.6631 36.8379L35.8865 35.9891C35.5734 36.0854 35.2483 36.1216 34.9233 36.1035C34.4356 36.0975 33.954 36.0493 33.4784 35.953H33.3279C33.2617 35.953 33.2617 35.953 33.2437 35.9891L33.1534 36.1396L32.9908 36.4105L32.6778 36.3383L31.2871 36.0132L31.0945 36.3262V36.3624L31.2631 36.549L31.1908 36.7898C31.0644 37.0848 30.8838 37.3496 30.655 37.5784L30.3059 37.9517L29.9868 37.5543L29.752 37.2593C29.4992 36.9282 29.439 36.4948 29.5835 36.1035L29.1922 36.266L29.0176 35.8808L28.9213 35.6098C28.6744 35.0379 28.861 34.3757 29.3607 34.0145L30.4804 33.4125L31.546 33.6232C31.546 33.5209 31.6122 33.1537 31.6423 33.0634H31.5821L30.9801 33.2921L30.3781 32.8828C30.2577 32.7624 30.2517 32.5637 30.3781 32.4373L30.95 31.5704L29.4992 29.7644L31.6724 30.6192L31.8229 30.4386L32.1239 30.0774L32.4671 30.4025C32.5574 30.4928 32.6176 30.6012 32.6477 30.7276C33.2497 30.9684 34.3634 31.6727 34.4537 32.8165L34.1105 32.955C34.1527 33.0152 34.2069 33.0634 34.2731 33.0935L35.8624 33.25L36.0069 33.2078C36.2778 33.1055 36.5667 33.0513 36.8557 33.0453C37.1447 33.0453 37.4276 33.1115 37.6865 33.2379C37.8008 33.1958 37.9273 33.1717 38.0477 33.1657H38.1259C38.9748 33.1657 39.4022 33.8038 39.7393 34.3095L39.9139 34.5624C40.2089 34.9838 40.6002 35.5978 40.6182 35.6219L40.7928 35.8928L40.5761 36.1456C40.3774 36.4105 40.0644 36.561 39.7333 36.561C39.637 36.567 39.5406 36.567 39.4443 36.561C39.36 36.543 39.2758 36.5189 39.1915 36.4828C39.1915 36.567 39.1915 36.6694 39.1433 36.7537L38.8965 38.1744C40.534 37.8433 41.6898 36.3744 41.6236 34.7008L41.6176 29.2587ZM27.1514 28.8192H38.4029C37.9453 28.3376 37.7888 27.6453 37.9935 27.0132C37.843 26.941 37.6985 26.8446 37.5721 26.7363C37.1326 27.0614 35.7661 28.0366 35.441 28.2834L35.3688 28.3316L30.95 27.549H30.8597C30.7152 27.555 30.5708 27.555 30.4263 27.549C30.3841 27.7476 30.2096 27.8861 30.0109 27.8861H29.9387C29.7039 27.844 29.5413 27.6212 29.5775 27.3864V27.2901C29.0055 26.8808 28.7346 26.1704 28.8851 25.4841V25.4058L28.9514 25.3577C28.9514 25.3577 29.0356 25.2975 29.15 25.2313L28.831 25.1831C28.7106 25.159 28.6323 25.0507 28.6504 24.9303C28.6684 24.8099 28.7768 24.7316 28.8972 24.7497H28.9032L29.6678 24.8701L29.74 22.1791L30.8778 20.9751L31.5882 22.468L30.8417 25.0567L31.5159 25.165C31.6363 25.1891 31.7146 25.2975 31.6965 25.4179C31.6785 25.5262 31.5882 25.5985 31.4798 25.5985H31.4437L30.8958 25.5082V25.5503C30.956 25.6587 31.0464 25.743 31.1607 25.7971L34.5259 25.8513L35.3868 25.0025C34.7306 24.7737 34.2611 24.1958 34.1828 23.5035C33.7614 23.341 33.4183 23.0279 33.2256 22.6246C33.0631 22.2453 33.033 21.8179 33.1474 21.4206C32.6176 21.2099 32.136 20.8908 31.7447 20.4814H26.748C26.9888 21.0714 27.1273 21.6975 27.1514 22.3296V28.8192Z" fill="#FCE527"/>
<path d="M65.9863 24.1725H70.9468V32.6006H74.5588V24.1725H79.5194V21.1143H65.9863V24.1725ZM84.2873 27.7846V21.1625H80.7957V32.6006H83.878L89.898 25.9063V32.6006H93.3897V21.1143H90.3074L84.2873 27.7846ZM105.015 25.3765H99.4037V21.1625H95.912V32.6006H99.4037V28.3143H105.015V32.6006H108.506V21.1625H105.015V25.3765ZM120.685 24.4856C119.86 24.2327 118.993 24.1304 118.132 24.1725H114.52V21.1625H111.029V32.6006L118.108 32.5525C118.849 32.5645 119.583 32.4802 120.3 32.2876C122.118 31.8421 123.37 30.1866 123.31 28.3143C123.382 26.5986 122.316 25.0334 120.685 24.4856ZM118.903 29.6628C118.463 29.8133 117.994 29.8735 117.53 29.8314H114.52V26.9177H117.53C117.982 26.8876 118.439 26.9418 118.879 27.0622C119.433 27.2247 119.806 27.7364 119.794 28.3143C119.8 28.9043 119.451 29.4401 118.903 29.6628ZM137.938 21.1625H133.556L129.342 25.4729H128.379V21.1625H124.887V32.6006H128.379V28.2662H129.342L133.508 32.6006H138.155L132.352 26.5806L137.938 21.1625Z" fill="#222220"/>
<path d="M145.452 20.8006C140.732 20.8006 137.914 23.4494 137.914 26.8688C137.914 30.2882 140.756 32.937 145.427 32.937C150.099 32.937 152.916 30.2882 152.916 26.8688C152.916 23.4494 150.171 20.8006 145.452 20.8006ZM145.427 30.1437C143.092 30.1437 141.599 28.7471 141.599 26.8688C141.599 24.9906 143.116 23.618 145.427 23.618C147.739 23.618 149.256 24.9906 149.256 26.8688C149.256 28.7471 147.763 30.1437 145.427 30.1437ZM164.421 21.6193V20.4635H160.929V21.6193C156.546 21.7156 153.922 23.5698 153.922 26.8447C153.922 30.1197 156.546 31.8294 160.929 31.9257V33.0815H164.421V31.9257C168.827 31.8294 171.452 30.1197 171.452 26.8447C171.452 23.5698 168.833 21.7156 164.421 21.6193ZM160.929 29.4695C158.521 29.3732 157.461 28.3859 157.461 26.8447C157.461 25.3036 158.521 24.1959 160.929 24.0996V29.4695ZM164.421 29.4695V24.0996C166.853 24.1959 167.888 25.3036 167.888 26.8447H167.894C167.894 28.3859 166.859 29.3732 164.421 29.4695ZM182.968 21.6193V20.4635H179.477V21.6193C175.094 21.7156 172.469 23.5698 172.469 26.8447C172.469 30.1197 175.094 31.8294 179.477 31.9257V33.0815H182.968V31.9257C187.375 31.8294 190 30.1197 190 26.8447C190 23.5698 187.375 21.7156 182.968 21.6193ZM179.477 29.4695C177.069 29.3732 176.009 28.3859 176.009 26.8447C176.009 25.3036 177.069 24.1959 179.477 24.0996V29.4695ZM186.43 26.8447C186.43 28.3859 185.401 29.3732 182.968 29.4695V24.0996C185.401 24.1959 186.436 25.3036 186.436 26.8447H186.43ZM31.7683 31.6247C31.696 31.6247 31.6298 31.6789 31.6238 31.7511V31.7571C31.6178 31.8354 31.678 31.9076 31.7562 31.9136H31.7622C31.8465 31.9136 31.9067 31.8474 31.9067 31.7692C31.9067 31.6849 31.8465 31.6247 31.7683 31.6247ZM31.7623 31.6186C31.7683 31.6186 31.7683 31.6247 31.7683 31.6247C31.7743 31.6247 31.7743 31.6186 31.7803 31.6186H31.7623ZM41.599 41.4916L40.7682 41.1725L40.997 40.3116L41.2498 39.3725C40.112 39.9564 38.9201 40.426 37.692 40.7752C37.09 40.9437 36.6565 41.022 36.6565 41.022V41.63C35.9161 41.7504 35.1696 41.8166 34.4171 41.8227H34.3508C33.5983 41.8166 32.8518 41.7504 32.1114 41.63V41.028C32.1114 41.028 31.6719 40.9437 31.0699 40.7752C29.8418 40.426 28.6498 39.9564 27.512 39.3725L27.7589 40.3116L27.9936 41.1725L27.1569 41.4916L26.2539 41.8347C27.494 42.4788 28.7883 43.0146 30.1248 43.436L29.8057 44.3029C31.2565 44.8568 32.8097 45.1277 34.3629 45.0916H34.399C35.9522 45.1277 37.5054 44.8568 38.9562 44.3029L38.6431 43.436C39.9736 43.0146 41.2679 42.4788 42.508 41.8347L41.599 41.4916ZM27.2592 41.8889L28.6077 41.4374L28.2044 40.113C29.0893 40.5524 30.0044 40.9197 30.9495 41.2086L30.2873 43.0146C29.2458 42.7377 28.2284 42.3585 27.2592 41.8889ZM34.4171 44.6641L34.387 44.6401C33.0625 44.634 31.7441 44.4534 30.4679 44.1043L31.2806 41.9009C32.292 42.1538 33.3334 42.2922 34.3809 42.2982H34.4472C35.4947 42.2862 36.5361 42.1538 37.5475 41.9009L38.3602 44.1043C37.0779 44.4655 35.7475 44.6521 34.4171 44.6641ZM38.5227 43.0508V43.0327L37.8605 41.2267C38.8057 40.9377 39.7207 40.5705 40.6057 40.131L40.2023 41.4554L41.5689 41.913C40.5936 42.3886 39.5702 42.7738 38.5227 43.0508ZM34.3809 7.12907C35.7414 7.09295 37.0779 7.50231 38.1855 8.29094C38.3601 7.39997 38.6912 6.54511 39.1668 5.76853L37.8003 5.92505L37.0899 4.40198L35.7113 5.11235L34.3809 3.79395L33.0504 5.11235L31.6718 4.40198L30.9615 5.92505L29.5949 5.76853C30.0705 6.54511 30.4016 7.39997 30.5762 8.29094C31.6839 7.50231 33.0203 7.09295 34.3809 7.12907ZM30.9013 6.45482L31.2805 6.49696L31.4431 6.15382L31.9187 5.13041L32.8036 5.58793L33.1468 5.76251L33.4237 5.50967L34.3809 4.54044L35.3381 5.50967L35.615 5.78057L35.9581 5.60599L36.8371 5.14847L37.3187 6.17188L37.4812 6.51502L37.8605 6.47288L38.2217 6.43074C38.0772 6.76184 37.9508 7.10499 37.8484 7.45415C35.6752 6.34044 33.0926 6.34044 30.9193 7.45415C30.817 7.10499 30.6906 6.76184 30.5461 6.43074L30.9013 6.45482ZM52.2365 19.5544L52.0739 19.3558C50.9542 17.929 49.8886 16.5745 47.9863 15.9544C48.0646 15.8882 48.1428 15.828 48.2271 15.7738C49.1301 15.2621 49.7682 14.3832 49.9729 13.3658C50.0753 12.4447 49.8164 11.5237 49.2505 10.7892L48.6485 10.0368L48.2692 10.9337C48.2692 10.9879 47.601 12.4267 46.2525 12.4267H45.8552C45.9274 11.4815 45.5843 10.5484 44.9161 9.87422C44.1034 9.04345 42.9836 8.57991 41.8218 8.58593C41.605 8.58593 41.3883 8.60399 41.1776 8.63409L40.2565 8.81469L40.8284 9.5672C41.2739 10.1692 41.6773 11.2106 41.2017 11.7705C40.9729 11.9692 40.7141 12.1257 40.4311 12.234C39.8291 12.517 38.9622 12.9203 38.9622 13.9317C38.9622 14.5879 39.4739 15.2742 40.395 15.8581C43.11 17.5799 44.7896 19.3558 45.5181 21.3544C46.6438 24.4006 45.1749 26.1344 43.7482 27.0494L43.11 27.4588L43.6699 27.9705C44.1696 28.3979 44.7836 28.6628 45.4398 28.729H45.9876C46.5475 28.729 47.1014 28.6508 47.6371 28.4882C47.5047 28.723 47.3422 28.9457 47.1676 29.1504C46.3549 30.0956 45.1508 30.6133 43.9047 30.5471H43.3689L43.3268 31.0829C43.3208 31.8354 43.6519 32.5457 44.2238 33.0334C44.3743 33.1658 44.5428 33.2742 44.7234 33.3584C43.8325 34.2253 43.3268 35.4113 43.3087 36.6574C43.3087 37.3377 43.1522 38.012 42.8572 38.626L42.2552 39.529H43.3268C45.0967 39.529 46.4512 39.0414 47.3903 38.0722C47.8779 37.5605 48.2391 36.9404 48.4498 36.2661C48.799 36.5611 49.2084 36.7658 49.6539 36.8681C49.8646 36.9163 50.0813 36.9404 50.298 36.9404C50.6231 36.9404 50.9482 36.8982 51.2612 36.826L51.9475 36.6454L51.6465 36.0073C51.2672 34.9899 51.2672 33.8641 51.6465 32.8467C51.8692 32.1845 52.0258 31.4982 52.11 30.7999C52.6518 31.0768 53.2539 31.2153 53.8619 31.2093C54.8612 31.2213 55.7943 30.7277 56.3361 29.8909L56.6672 29.2889L56.0652 29.036C54.0485 28.1993 53.603 25.9478 53.5127 24.7317C53.7114 24.7738 53.91 24.7979 54.1147 24.8039L54.2833 24.9183C56.4746 24.9183 57.209 22.6849 57.2391 22.5886L57.486 21.7999H56.6612C54.9274 21.7397 53.308 20.921 52.2365 19.5544ZM54.2893 24.3103H54.205C53.7656 24.3163 53.3321 24.1959 52.9589 23.9672C52.9589 23.9672 52.6398 28.3197 55.8846 29.6682V29.6862C55.4572 30.3364 54.7228 30.7217 53.9462 30.7096C53.0672 30.7638 52.2184 30.3906 51.6646 29.7103C51.6826 30.7337 51.5141 31.7571 51.1709 32.7203C50.7314 33.8822 50.7314 35.1705 51.1709 36.3324C50.9 36.3986 50.6291 36.4347 50.3522 36.4347C50.1836 36.4347 50.009 36.4166 49.8465 36.3745C49.0458 36.1819 48.4077 35.5919 48.1488 34.8153C48.1488 34.8153 48.2753 38.9932 43.405 38.9932H43.3689C43.7361 38.2949 43.9288 37.5183 43.9228 36.7297C44.1335 33.6414 46.2284 33.2019 46.2284 33.2019C45.6505 33.1297 45.1027 32.925 44.6211 32.5999C44.1816 32.2327 43.9288 31.6909 43.9167 31.119C45.3254 31.1792 46.686 30.5952 47.607 29.5237C48.1609 28.8916 48.5281 28.121 48.6846 27.2962C47.908 27.8802 46.9508 28.1752 45.9816 28.133H45.488C44.9642 28.0789 44.4646 27.8742 44.0612 27.531C45.9154 26.327 47.2157 24.2682 46.0659 21.1437C45.1388 18.6394 42.9174 16.7672 40.684 15.3585C39.9435 14.9009 39.498 14.3832 39.498 13.9377C39.498 12.8902 40.985 12.8601 41.599 12.1317C42.3034 11.313 41.8639 9.9886 41.2498 9.19395C41.4244 9.16385 41.605 9.15181 41.7796 9.15181C42.785 9.13977 43.7542 9.54311 44.4525 10.2655C45.1629 10.9397 45.4338 11.9571 45.1629 12.8963L45.488 12.9625C45.6866 12.9986 45.8853 13.0167 46.09 13.0227H46.2224C47.9863 13.0227 48.7809 11.1745 48.7809 11.1745C48.7809 11.1745 50.6592 13.4862 47.896 15.2922C47.4204 15.5993 47.2097 15.8942 47.294 16.1952L47.3361 16.3939L47.5348 16.43C49.5395 16.9718 50.5448 18.3565 51.791 19.9277C52.9709 21.4267 54.7529 22.3297 56.6612 22.3959H56.6973C56.6973 22.3959 56.0953 24.3103 54.2893 24.3103Z" fill="#222220"/>
<path d="M50.4249 16.2261C51.0991 16.6114 51.6831 17.1352 52.1406 17.7613C52.4838 18.291 52.9714 18.7124 53.5493 18.9653C53.766 19.0375 54.0008 19.0736 54.2296 19.0736C55.1506 19.0736 55.9935 18.5499 56.4149 17.7312L56.764 16.9486L55.9152 16.9004C55.0001 16.7318 54.1754 16.2623 53.5674 15.5579C53.1159 15.0703 52.4838 14.7873 51.8155 14.7813C51.2978 14.7873 50.7981 14.9439 50.3647 15.2208L49.5821 15.7686L50.4249 16.2261ZM51.8336 15.3653L51.8155 15.3713C52.3272 15.3713 52.8088 15.594 53.152 15.9733C53.8563 16.78 54.8195 17.3158 55.8791 17.4904C55.554 18.0984 54.9219 18.4776 54.2296 18.4837C54.061 18.4837 53.8925 18.4536 53.7299 18.3994C52.7547 18.0683 52.4115 16.5934 50.7199 15.7024C51.051 15.4857 51.4363 15.3713 51.8336 15.3653ZM50.8222 23.986L50.8102 23.974C50.3166 20.0007 47.4329 17.1292 44.2243 15.3894C43.9293 15.2268 43.6523 15.0944 43.3875 14.968C44.7119 15.2389 46.0905 14.9138 47.156 14.083C47.156 14.083 45.2958 15.4496 41.4911 14.2094C42.5447 14.8957 44.5915 15.8589 46.4637 17.4241C51.1353 21.5298 47.7942 25.5392 47.7942 25.5392C49.1908 24.2148 49.6784 22.192 49.0523 20.374C50.0396 22.0174 50.5152 23.9198 50.4129 25.8342C50.2804 28.9887 48.5286 31.7459 46.7226 33.9432C46.1808 34.6355 45.8075 35.4482 45.651 36.3151C45.958 35.4542 46.4216 34.6596 47.0236 33.9733C48.9801 31.6797 50.6356 29.3017 50.8704 25.8763C51.0751 26.4783 51.9059 28.2302 53.2303 28.8863C53.2303 28.8863 51.5687 27.887 50.8222 23.986ZM25.8992 38.669C25.6102 38.0549 25.4537 37.3807 25.4477 36.7004C25.4296 35.4542 24.9179 34.2683 24.0269 33.4014C24.2075 33.3171 24.3761 33.2088 24.5266 33.0763C25.0985 32.5887 25.4296 31.8783 25.4236 31.1258L25.3875 30.59H24.8456C23.6055 30.6502 22.4015 30.1385 21.5888 29.1934C21.4142 28.9887 21.2577 28.7659 21.1192 28.5312C21.655 28.6937 22.2089 28.772 22.7687 28.772H23.3166C23.9727 28.7057 24.5928 28.4409 25.0925 28.0134L25.6523 27.5017L25.0142 27.0924C23.5814 26.1773 22.1186 24.4435 23.2443 21.3974C23.9727 19.4168 25.6523 17.6288 28.3915 15.9071C29.3125 15.3051 29.8182 14.6369 29.8182 13.9807C29.8182 12.9693 28.9694 12.566 28.3493 12.283C28.0664 12.1746 27.8075 12.0181 27.5788 11.8195C27.0972 11.2596 27.5005 10.194 27.952 9.61609L28.554 8.86358L27.6269 8.68298C27.4162 8.64686 27.1995 8.63482 26.9828 8.63482C25.8089 8.5987 24.6771 9.05022 23.8463 9.87496C23.1661 10.5432 22.8109 11.4823 22.8771 12.4335H22.5159C21.1614 12.4335 20.5232 11.0007 20.4992 10.9405L20.1199 10.0435L19.5179 10.7961C18.958 11.5305 18.6992 12.4516 18.8015 13.3726C19.0062 14.39 19.6383 15.269 20.5413 15.7807C20.6256 15.8348 20.7099 15.895 20.7821 15.9613C18.8798 16.5633 17.8142 17.9359 16.6945 19.3626L16.5319 19.5673C15.4604 20.9338 13.835 21.7526 12.1012 21.8128H11.2764L11.5293 22.6014C11.5293 22.6977 12.2878 24.9312 14.4851 24.9312H14.5935C14.7982 24.9251 14.9968 24.9011 15.1955 24.8589C15.1052 26.0629 14.6597 28.3265 12.637 29.1633L12.035 29.4161L12.3661 30.0181C12.9079 30.8549 13.841 31.3486 14.8403 31.3365C15.4483 31.3425 16.0443 31.2041 16.5861 30.9272C16.6704 31.6255 16.8269 32.3118 17.0497 32.974C17.4289 33.9914 17.4289 35.1171 17.0497 36.1345L16.7487 36.7726L17.4349 36.9532C17.748 37.0255 18.0731 37.0676 18.3982 37.0676C18.6149 37.0676 18.8316 37.0435 19.0423 36.9954C19.4878 36.893 19.8972 36.6884 20.2463 36.3934C20.457 37.0676 20.8182 37.6877 21.3059 38.1994C22.251 39.1686 23.6055 39.6502 25.3694 39.6562H26.441L25.8992 38.669ZM25.3814 39.0061C20.5112 39.0061 20.6316 34.8282 20.6316 34.8282C20.3727 35.6047 19.7346 36.1947 18.9339 36.3874C18.7714 36.4295 18.5968 36.4476 18.4283 36.4476C18.1513 36.4476 17.8804 36.4114 17.6156 36.3452C18.055 35.1833 18.055 33.895 17.6156 32.7332C17.2724 31.77 17.1099 30.7466 17.1279 29.7231C16.5741 30.4034 15.7253 30.7767 14.8463 30.7225H14.8162C14.0336 30.7345 13.2992 30.3432 12.8717 29.693C16.1166 28.3445 15.7975 23.992 15.7975 23.992C15.4242 24.2208 14.9908 24.3412 14.5513 24.3352H14.4851C12.6791 24.3352 12.0771 22.4208 12.0771 22.4208H12.1132C14.0216 22.3606 15.8095 21.4576 16.9895 19.9586C18.2296 18.3874 19.241 17.0027 21.2457 16.4609L21.4443 16.4248L21.4865 16.2262C21.5406 15.9191 21.3299 15.6241 20.8844 15.3231C18.1212 13.5171 19.9995 11.2054 19.9995 11.2054C19.9995 11.2054 20.7821 13.0536 22.558 13.0536H22.6423C22.847 13.0476 23.0456 13.0295 23.2443 12.9934L23.5694 12.9272C23.2925 11.988 23.5694 10.9706 24.2798 10.2964C24.9781 9.57395 25.9473 9.17061 26.9527 9.18265C27.1273 9.18265 27.3079 9.19469 27.4824 9.22479C26.8804 10.0255 26.4349 11.3499 27.1393 12.1626C27.7413 12.867 29.2343 12.8971 29.2343 13.9686C29.2343 14.4141 28.8189 14.9318 28.0784 15.3954C25.839 16.8041 23.6176 18.6763 22.6965 21.1807C21.5467 24.3051 22.847 26.382 24.7012 27.568C24.2978 27.9051 23.7982 28.1158 23.2744 28.17H22.7747C21.8055 28.2121 20.8483 27.9171 20.0717 27.3332C20.2283 28.1579 20.5955 28.9285 21.1433 29.5606C22.0644 30.6261 23.4309 31.2161 24.8396 31.1559C24.8276 31.7278 24.5747 32.2696 24.1353 32.6369C23.6537 32.9619 23.1058 33.1666 22.5279 33.2389C22.5279 33.2389 24.6289 33.6663 24.8577 36.7666C24.8517 37.5552 25.0443 38.3318 25.4115 39.0302L25.3814 39.0061Z" fill="#222220"/>
<path d="M14.5273 19.0676H14.5334C14.7621 19.0676 14.9969 19.0315 15.2136 18.9593C15.7916 18.7064 16.2792 18.285 16.6223 17.7552C17.0738 17.1292 17.6578 16.6054 18.332 16.2201L19.1748 15.7686L18.3922 15.2208C17.9588 14.9439 17.4591 14.7873 16.9474 14.7813C16.2792 14.7873 15.6471 15.0703 15.1956 15.5639C14.5936 16.2623 13.7628 16.7379 12.8538 16.9064L12.0049 16.9486L12.3481 17.7312C12.7695 18.5499 13.6063 19.0616 14.5273 19.0676ZM15.611 15.9733C15.9481 15.594 16.4297 15.3713 16.9414 15.3713C17.3327 15.3773 17.718 15.4977 18.0491 15.7084C16.3454 16.6174 15.9902 18.0743 15.0391 18.4054C14.8825 18.4596 14.714 18.4897 14.5454 18.4897C13.8471 18.4897 13.209 18.1044 12.8839 17.4904C13.9434 17.3158 14.9066 16.78 15.611 15.9733ZM18.3622 25.8583C18.2599 23.9439 18.7295 22.0415 19.7228 20.3981C19.0967 22.2161 19.5843 24.2389 20.981 25.5633C20.981 25.5633 17.6338 21.5539 22.3114 17.4482C24.1836 15.883 26.2245 14.9198 27.278 14.2335C23.4733 15.4736 21.6131 14.1071 21.6131 14.1071C22.6786 14.9379 24.0512 15.2629 25.3756 14.992C25.1107 15.1185 24.8338 15.2569 24.5388 15.4134C21.3301 17.1593 18.4285 20.0308 17.9529 24.0041V23.974C17.2064 27.875 15.5449 28.8743 15.5449 28.8743C16.8632 28.2241 17.7 26.4663 17.8987 25.8643C18.1214 29.2957 19.795 31.6736 21.7515 33.9613C22.3475 34.6475 22.8171 35.4422 23.1241 36.3031C22.9616 35.4422 22.5883 34.6295 22.0405 33.9432C20.2345 31.7459 18.4887 28.9887 18.3622 25.8583ZM33.2798 18.6101C33.4905 18.4054 33.7855 18.3091 34.0805 18.3452V19.483C34.0745 19.7659 34.0022 20.0368 33.8638 20.2837H35.0016C34.8631 20.0368 34.7909 19.7659 34.7849 19.483V18.3452C35.0738 18.3091 35.3688 18.4054 35.5795 18.6101V17.8215H33.2798V18.6101ZM32.8043 13.1499H32.7923C32.9669 13.3004 33.1716 13.4208 33.3943 13.493L33.5388 13.5593V12.8128L32.2023 12.2529C32.2685 12.6261 32.4853 12.9512 32.8043 13.1499ZM35.977 13.1439L35.971 13.1499C36.29 12.9512 36.5067 12.6261 36.573 12.2529L35.2365 12.8128V13.5532L35.375 13.487C35.5977 13.4148 35.8024 13.2944 35.977 13.1439Z" fill="#222220"/>
<path d="M38.3727 10.1274C38.3727 9.0016 36.4764 7.99023 34.3874 7.99023C32.2984 7.99023 30.4021 9.0016 30.4021 10.1274L30.4443 10.4043L31.281 15.2203L30.4443 15.7079L28.259 16.9481C28.259 16.9481 27.7713 17.2009 27.5426 17.3514C26.7178 17.9534 26.5433 18.7601 27.0188 19.1093C27.1392 18.2905 27.8556 17.6885 28.6864 17.7126C29.3787 17.7307 30.0229 18.0798 30.4142 18.6517C30.5346 18.7962 30.6429 18.9527 30.7392 19.1093C30.8657 19.3139 30.9921 19.4945 31.1185 19.6691H25.5439C26.0135 20.4758 26.2844 21.3848 26.3446 22.318V34.7012C26.3446 37.7113 28.6503 39.126 31.1606 39.126C33.0871 39.126 33.3459 39.0357 34.4055 40.0952C35.465 39.0357 35.7239 39.126 37.6503 39.126C40.1426 39.126 42.4663 37.6992 42.4663 34.7012V22.33C42.5265 21.3969 42.7974 20.4879 43.267 19.6812H37.6322C37.7586 19.5066 37.8851 19.326 38.0115 19.1213C38.1138 18.9648 38.2222 18.8083 38.3366 18.6638C38.7339 18.0919 39.378 17.7427 40.0703 17.7246C40.9011 17.7006 41.6175 18.3026 41.7379 19.1213C42.2195 18.7782 42.0449 17.9173 41.2142 17.3634C40.9914 17.2069 40.5038 16.9601 40.5038 16.9601L38.3366 15.6838L37.4998 15.1962L38.3366 10.3802L38.3727 10.1274ZM31.2088 10.6812L34.1466 11.6745V16.2859L31.9854 15.142L31.2088 10.6812ZM26.7479 20.4818H31.8108C32.2021 20.8912 32.6837 21.2163 33.2135 21.421C33.0991 21.8183 33.1292 22.2457 33.2917 22.625C33.4844 23.0283 33.8275 23.3414 34.2489 23.5039C34.3272 24.1962 34.7968 24.7741 35.4529 25.0029C35.0917 25.3701 34.7366 25.7133 34.5921 25.8517L31.2269 25.7976C31.1125 25.7434 31.0222 25.6591 30.962 25.5507V25.5086L31.5098 25.5989H31.5459C31.6543 25.5989 31.7446 25.5267 31.7627 25.4183C31.7807 25.2979 31.7024 25.1895 31.582 25.1654L30.9078 25.0571L31.6543 22.4685L30.9439 20.9755L29.8061 22.1795L29.7339 24.8705L28.9693 24.7501C28.8489 24.726 28.7406 24.8042 28.7165 24.9246V24.9307C28.6984 25.0511 28.7767 25.1594 28.8971 25.1835L29.2162 25.2317C29.1018 25.2979 29.0235 25.346 29.0175 25.3581L28.9513 25.4062V25.4845C28.8008 26.1708 29.0777 26.8812 29.6436 27.2905V27.3869C29.6075 27.6216 29.77 27.8444 30.0048 27.8865H30.077C30.2757 27.8865 30.4503 27.7481 30.4924 27.5494C30.6369 27.5554 30.7754 27.5554 30.9198 27.5494H31.0101L35.4228 28.3501L35.4951 28.3019C35.8443 28.0551 37.1867 27.0979 37.6262 26.7547C37.7526 26.8631 37.8971 26.9594 38.0476 27.0317C37.8429 27.6638 37.9994 28.3561 38.457 28.8377H27.1513V22.33C27.1272 21.6979 26.9887 21.0718 26.7479 20.4818ZM37.2469 26.4357C36.7894 26.7728 35.6637 27.5915 35.2543 27.8805L31.2509 27.1822V27.0738C31.3172 26.8029 31.3533 26.526 31.3593 26.2491L34.7305 26.3032L34.7968 26.237C34.8509 26.1828 35.9165 25.1534 36.4583 24.5574C36.6028 24.738 36.7713 24.8885 36.964 25.0089C36.8677 25.5026 36.97 26.0143 37.2469 26.4357ZM30.5586 25.7133V25.7313C30.6489 25.8999 30.7814 26.0444 30.9439 26.1407C30.9379 26.3875 30.9138 26.6283 30.8717 26.8691C30.8717 26.9233 30.8717 26.9775 30.8295 27.0317V27.1159C30.5526 27.1159 30.2817 27.0738 30.0168 26.9895C29.5352 26.7307 29.2643 26.2009 29.3426 25.6591C29.5593 25.5086 29.8061 25.4123 30.065 25.3761C30.2877 25.3701 30.4864 25.5026 30.5586 25.7133ZM30.1433 24.9126L30.2095 22.3661L30.8115 21.7641L31.1787 22.5287L30.4623 25.0089L30.1433 24.9126ZM37.2168 38.3253H36.6389L37.0904 36.8504C37.1626 36.6457 36.7894 36.3808 36.6329 36.146C37.0001 36.3688 37.3794 36.5674 37.7707 36.748C37.7707 36.7962 37.2168 38.3253 37.2168 38.3253ZM38.764 36.6758L38.7158 36.6337L38.4028 38.2591C38.2041 38.2591 37.9934 38.3012 37.8008 38.3133L38.1319 36.748C38.2282 36.2845 36.982 36.146 36.368 35.225C35.9647 35.5621 35.4469 35.7186 34.9292 35.6644C34.4717 35.6584 34.0202 35.6103 33.5747 35.52C33.4964 35.5139 33.4182 35.5139 33.3399 35.52C33.1533 35.5079 32.9727 35.6042 32.8764 35.7668L32.7861 35.9173L31.0703 35.5019L30.661 36.2123C30.5948 36.3086 30.6068 36.441 30.6911 36.5253L30.8055 36.6517C30.6911 36.8745 30.5466 37.0792 30.372 37.2537L30.1192 36.9407C29.9265 36.6276 29.9446 36.2243 30.1613 35.9293L30.8356 34.7915L32.2744 35.0083L32.0516 34.4965C31.7506 33.8223 32.2081 32.9614 32.2563 32.4678C32.2563 32.6183 32.0998 32.6484 31.9433 32.6484H31.5279C31.4978 32.6424 31.4616 32.6424 31.4315 32.6484L31.0402 32.8832L30.7332 32.6002C30.6851 32.5099 30.7031 32.4016 30.7754 32.3353L31.4857 31.5347L30.6429 30.5534L31.8469 31.1554L32.2081 30.722C32.3045 30.8183 32.2623 31.0711 32.2623 31.0711C33.1352 31.2879 33.7433 32.0825 33.7192 32.9855V33.1601C33.8396 33.3527 34.0322 33.4852 34.2489 33.5394L35.8804 33.7019C36.2055 33.5996 36.5366 33.5333 36.8737 33.4912C37.1626 33.4912 37.4516 33.5815 37.6924 33.738C37.8068 33.6598 37.9453 33.6116 38.0837 33.6056H38.1379C38.8663 33.6056 39.1733 34.2678 39.5647 34.8096C39.8596 35.225 40.257 35.8511 40.257 35.8511C40.1426 36.0196 39.956 36.122 39.7513 36.122C39.679 36.128 39.6128 36.128 39.5406 36.122C38.758 35.9775 38.6436 34.3641 38.1981 34.2377H38.1259C38.0416 34.2377 37.9633 34.2858 37.9212 34.3641C38.1259 34.9119 38.0055 35.1347 38.2282 35.5681C38.3907 35.827 38.5954 36.0618 38.8302 36.2604C38.8302 36.2604 38.8001 36.5012 38.764 36.6758ZM29.9928 35.0986H29.9807L30.053 35.2852C30.0048 35.4477 29.4509 35.6825 29.4509 35.6825L29.3305 35.4176C29.174 35.0384 29.2884 34.6049 29.6195 34.3581L30.5285 33.8042L31.4978 34.0089C31.4917 34.2016 31.5519 34.3882 31.6663 34.5447L30.6489 34.3521L30.0469 34.7735C29.9506 34.8578 29.9325 34.9902 29.9928 35.0986ZM41.6356 34.7072C41.7018 36.3808 40.5399 37.8497 38.8964 38.1748L39.1733 36.718C39.1733 36.6337 39.2034 36.5313 39.2155 36.447C39.2998 36.4832 39.3841 36.5072 39.4683 36.5253C39.5647 36.5313 39.661 36.5313 39.7573 36.5253C40.0884 36.5253 40.4014 36.3748 40.6001 36.1099L40.8168 35.8571L40.6362 35.6103C40.6362 35.6103 40.2329 34.9721 39.9319 34.5507L39.7633 34.2979C39.4262 33.7922 38.9988 33.1541 38.1499 33.1541H38.0717C37.9513 33.1601 37.8249 33.1842 37.7105 33.2263C37.4516 33.0999 37.1687 33.0337 36.8797 33.0337C36.5907 33.0397 36.3018 33.0939 36.0309 33.1962L35.8864 33.2384L34.2971 33.0818C34.2309 33.0517 34.1767 33.0036 34.1346 32.9434L34.4777 32.8049C34.3814 31.6551 33.2737 30.9507 32.6717 30.7159C32.6416 30.5895 32.5814 30.4812 32.4911 30.3909L32.1479 30.0658L31.8469 30.427L31.6964 30.6076L29.469 29.6925L30.9198 31.4986L30.3479 32.3654C30.2275 32.4858 30.2215 32.6845 30.3479 32.8109L30.9499 33.2203L31.5519 32.9915H31.6121C31.6121 33.0818 31.5459 33.4491 31.5158 33.5514L30.4683 33.3708L29.3486 33.9728C28.8309 34.346 28.6503 35.0323 28.9212 35.6103L29.0476 35.8812L29.2222 36.2664L29.6135 36.1039C29.469 36.4952 29.5292 36.9287 29.782 37.2598L30.0168 37.5608L30.3299 37.9581L30.679 37.5848C30.9078 37.3561 31.0884 37.0912 31.2148 36.7962L31.2871 36.5554L31.1185 36.3688V36.3327L31.3111 36.0196L32.7018 36.3447L33.0148 36.4169L33.1834 36.14L33.2737 35.9895C33.2737 35.9594 33.2737 35.9534 33.358 35.9534H33.5085C33.9841 36.0497 34.4657 36.0979 34.9473 36.1039C35.2723 36.122 35.5974 36.0858 35.9105 35.9895L36.681 36.8685L36.2235 38.2771V38.3614C35.5372 38.3494 34.881 38.6323 34.4175 39.132C33.677 38.3975 33.1533 38.3193 31.1727 38.3193C28.7948 38.3193 27.1874 36.9287 27.1874 34.7072V29.2892H41.6356V34.7072ZM42.0269 20.4818C41.78 21.0658 41.6476 21.6919 41.6235 22.33V26.3875C41.0998 26.2731 40.7085 25.8277 40.6723 25.2919V25.1052H40.4917C40.1787 25.0812 39.8897 24.9367 39.673 24.7139C39.4081 24.4069 39.2636 24.0216 39.2576 23.6183C38.9988 24.0397 39.0228 24.5815 39.3239 24.9788C39.5586 25.2738 39.9018 25.4725 40.275 25.5206C40.3834 26.219 40.9432 26.7608 41.6416 26.8511V28.8377H39.1131C38.4509 28.5006 38.174 27.7119 38.469 27.0317L38.5653 26.8149L38.3426 26.7307C37.6202 26.4778 37.2228 25.7012 37.4516 24.9668L37.4998 24.7862L37.3312 24.7079C36.6991 24.3407 36.3499 23.6243 36.4523 22.9019C36.1212 23.239 36.0369 23.7507 36.2476 24.1721C36.1272 24.3106 35.9707 24.4731 35.7961 24.6537C35.164 24.5213 34.7065 23.9735 34.6824 23.3293V23.1788L34.5439 23.1246C34.1767 23.0163 33.8757 22.7634 33.7011 22.4263C33.5867 22.1494 33.5626 21.8364 33.6409 21.5474C33.7613 21.5715 33.8817 21.5895 34.0021 21.6016C34.1225 21.6076 34.2489 21.6076 34.3693 21.6016C35.3446 21.6016 36.2717 21.1802 36.9218 20.4578L42.0269 20.4818ZM38.1259 16.3762L39.1131 16.9782L39.36 17.1226C38.8483 17.2611 38.3847 17.538 38.0175 17.9233L37.9754 17.9594C37.8911 18.0497 37.8128 18.14 37.7346 18.2364L37.6864 18.2966C37.6081 18.3929 37.5359 18.4952 37.4697 18.6036L37.4336 18.6578C37.3493 18.7782 37.271 18.9106 37.1927 19.043C36.6449 20.1327 35.5794 20.8611 34.3693 20.9815C33.1593 20.8611 32.0938 20.1327 31.5459 19.043C31.4677 18.9106 31.3894 18.7842 31.3111 18.6578L31.263 18.5915L31.0703 18.2785L31.0162 18.2123C30.9379 18.116 30.8596 18.0256 30.7814 17.9414L30.7392 17.8992C30.372 17.5139 29.9085 17.237 29.3968 17.0986L29.6496 16.9541L30.6429 16.3521L31.6603 15.7501L34.3754 17.225L37.0904 15.7982L38.1259 16.3762ZM36.7894 15.1721L34.6282 16.3099V11.6805L37.56 10.6872L36.7894 15.1721ZM34.3814 11.1929L31.1667 9.90461C31.4376 9.25445 32.7018 8.7006 34.3814 8.7006C36.061 8.7006 37.3252 9.25445 37.5961 9.90461L34.3814 11.1929Z" fill="#222220"/>
</svg>
